
<svg xmlns="http://www.w3.org/2000/svg" xmlns:xlink="http://www.w3.org/1999/xlink" version="1.1" id="Layer_1" x="0px" y="0px" width="141px" height="62px" viewBox="0 0 141 62" enable-background="new 0 0 141 62" xml:space="preserve">
<g>
	<defs>
		<path id="SVGID_1_" d="M0.75,6.052c0-1.906,1.547-3.456,3.456-3.456h67.706c1.91,0,3.455,1.55,3.455,3.456v50.646    c0,1.912-1.545,3.456-3.455,3.456H4.207c-1.909,0-3.456-1.544-3.456-3.456V6.052z"/>
	</defs>
    <use xlink:href="#SVGID_1_" overflow="visible" fill="#0099FF"/>
    <clipPath id="SVGID_2_">
		<use xlink:href="#SVGID_1_" overflow="visible"/>
	</clipPath>
    <polygon clip-path="url(#SVGID_2_)" fill-rule="evenodd" clip-rule="evenodd" fill="#008BDC" points="0.75,2.596 75.367,2.596    75.367,60.368 0.75,60.368 0.75,2.596  "/>
    <path clip-path="url(#SVGID_2_)" fill="#FFFFFF" d="M24.623,54.256h-4.302l-4.499-10.869l-4.133,5.472v5.397H7.842V32.908h3.847   v11.215c0.493-0.762,0.845-1.292,1.063-1.58l7.089-9.635h3.891l-5.064,7.021L24.623,54.256L24.623,54.256z M34.598,54.585   c-2.834,0-5.043-1.067-6.623-3.19c-1.58-2.13-2.364-4.759-2.364-7.884c0-3.108,0.838-5.707,2.514-7.794   c1.681-2.092,3.897-3.139,6.646-3.139c2.773,0,4.963,1.047,6.574,3.139c1.613,2.087,2.422,4.702,2.422,7.839   c0,3.296-0.84,5.959-2.512,7.983C39.581,53.574,37.364,54.585,34.598,54.585L34.598,54.585z M34.631,51.483   c1.387,0,2.556-0.57,3.517-1.715c0.96-1.151,1.442-3.226,1.442-6.243c0-2.448-0.4-4.372-1.191-5.759   c-0.789-1.394-2.023-2.09-3.688-2.09c-3.299,0-4.941,2.656-4.941,7.96c0,2.573,0.414,4.53,1.258,5.854   C31.866,50.82,33.065,51.483,34.631,51.483L34.631,51.483z M68.278,54.256h-3.922V35.567l-5.908,18.688H56.43l-5.945-18.688v18.688   H47.34V32.908h6.021l4.474,13.743l4.397-13.743h6.046V54.256L68.278,54.256z M34.598,30.179c-2.834,0-5.043-1.071-6.623-3.195   c-1.58-2.13-2.364-4.755-2.364-7.883c0-3.106,0.838-5.707,2.514-7.794c1.681-2.091,3.897-3.138,6.646-3.138   c2.773,0,4.963,1.046,6.574,3.138c1.613,2.088,2.422,4.703,2.422,7.844c0,3.292-0.84,5.954-2.512,7.984   C39.581,29.163,37.364,30.179,34.598,30.179L34.598,30.179z M34.631,27.076c1.387,0,2.556-0.57,3.517-1.718   c0.96-1.148,1.442-3.225,1.442-6.239c0-2.452-0.4-4.374-1.191-5.761c-0.789-1.394-2.023-2.085-3.688-2.085   c-3.299,0-4.941,2.65-4.941,7.958c0,2.573,0.414,4.526,1.258,5.855C31.866,26.414,33.065,27.076,34.631,27.076L34.631,27.076z    M68.278,29.845h-3.922V11.159l-5.908,18.686H56.43l-5.945-18.686v18.686H47.34V8.501h6.021l4.474,13.743l4.397-13.743h6.046   V29.845L68.278,29.845z M7.842,29.845V8.501c10.918,0,15.041,1.389,15.041,10.749C22.883,28.608,18.994,29.845,7.842,29.845   L7.842,29.845z M11.689,11.602v15.042c5.862,0.118,7.518-2.534,7.518-7.524S17.471,11.445,11.689,11.602L11.689,11.602z"/>
    <use xlink:href="#SVGID_1_" overflow="visible" fill="none" stroke="#008BDC" stroke-width="0.25"/>
</g>
    <path fill="#FFFFFF" d="M82.016,17.812v-3.039c0-1.066,0.139-1.899,0.412-2.497c0.535-1.14,1.561-1.71,3.072-1.71  c1.42,0,2.406,0.51,2.963,1.535c0.352,0.651,0.529,1.542,0.529,2.672v3.039c0,1.056-0.143,1.883-0.42,2.482  c-0.531,1.149-1.555,1.727-3.072,1.727c-1.182,0-2.059-0.344-2.629-1.034C82.299,20.301,82.016,19.242,82.016,17.812z   M86.621,17.542v-2.497c0-0.833-0.045-1.398-0.143-1.696c-0.148-0.471-0.477-0.704-0.979-0.704c-0.5,0-0.826,0.228-0.975,0.687  c-0.096,0.301-0.143,0.871-0.143,1.713v2.497c0,0.83,0.047,1.396,0.143,1.695c0.148,0.469,0.475,0.704,0.975,0.704  c0.502,0,0.83-0.23,0.979-0.688C86.576,18.955,86.621,18.382,86.621,17.542z M90.189,21.332V11.252c0-0.191,0.021-0.319,0.064-0.384  c0.084-0.117,0.25-0.176,0.494-0.176h1.25c0.244,0,0.4,0.045,0.461,0.137c0.066,0.089,0.098,0.23,0.098,0.421v3.443  c0,0.149,0.076,0.224,0.225,0.224h0.768c0.244,0,0.439-0.075,0.574-0.224c0.182-0.19,0.273-0.506,0.273-0.939v-1.18  c0-0.604,0.158-1.071,0.473-1.396c0.314-0.322,0.723-0.485,1.225-0.485h1.07c0.139,0,0.258,0.04,0.352,0.122  c0.096,0.079,0.143,0.194,0.143,0.342v1.009c0,0.161-0.037,0.268-0.117,0.319c-0.082,0.056-0.16,0.079-0.234,0.079h-0.318  c-0.141,0-0.23,0.062-0.279,0.187c-0.047,0.122-0.072,0.257-0.072,0.406v1.312c0,0.351-0.076,0.629-0.223,0.833  c-0.205,0.171-0.4,0.335-0.594,0.496v0.064c0.404,0.19,0.73,0.437,0.975,0.736c0.246,0.298,0.369,0.741,0.369,1.327v3.408  c0,0.194-0.021,0.32-0.064,0.384c-0.084,0.117-0.252,0.176-0.496,0.176h-1.246c-0.244,0-0.4-0.045-0.465-0.137  c-0.063-0.091-0.096-0.233-0.096-0.426v-2.647c0-0.514-0.102-0.908-0.305-1.18c-0.201-0.272-0.521-0.409-0.961-0.409H92.75  c-0.131,0-0.193,0.084-0.193,0.255v3.982c0,0.247-0.047,0.402-0.135,0.466c-0.092,0.064-0.232,0.097-0.424,0.097h-1.25  c-0.189,0-0.318-0.022-0.383-0.065C90.248,21.744,90.189,21.577,90.189,21.332z M99.102,10.692h1.246  c0.246,0,0.402,0.047,0.465,0.137c0.064,0.091,0.096,0.232,0.096,0.423v3.089c0,0.094,0.012,0.171,0.041,0.223  c0.025,0.055,0.094,0.08,0.197,0.08h1.744c0.055,0,0.092-0.005,0.113-0.016c0.096-0.054,0.145-0.16,0.145-0.319v-3.057  c0-0.191,0.02-0.319,0.063-0.384c0.084-0.117,0.252-0.176,0.496-0.176h1.25c0.244,0,0.4,0.047,0.463,0.137  c0.064,0.091,0.096,0.232,0.096,0.423v10.079c0,0.194-0.021,0.32-0.064,0.384c-0.084,0.117-0.25,0.176-0.494,0.176h-1.25  c-0.244,0-0.398-0.045-0.465-0.137c-0.061-0.088-0.094-0.23-0.094-0.424V17.14c0-0.17-0.086-0.255-0.258-0.255h-1.744  c-0.158,0-0.238,0.08-0.238,0.241v4.206c0,0.245-0.045,0.4-0.137,0.464c-0.09,0.064-0.23,0.097-0.424,0.097h-1.246  c-0.191,0-0.32-0.022-0.387-0.065c-0.115-0.083-0.174-0.25-0.174-0.496V11.252c0-0.191,0.021-0.319,0.064-0.384  C98.689,10.751,98.855,10.692,99.102,10.692z M109.293,10.692h2.014c0.141,0,0.25,0.027,0.328,0.08  c0.082,0.054,0.148,0.175,0.201,0.369l2.59,10.271c0.025,0.064,0.033,0.133,0.033,0.208c0,0.181-0.117,0.273-0.352,0.273h-1.568  c-0.16,0-0.273-0.042-0.344-0.129c-0.068-0.084-0.119-0.191-0.15-0.32l-0.32-1.214c-0.043-0.161-0.15-0.242-0.318-0.242h-2.195  c-0.18,0-0.287,0.081-0.32,0.242l-0.303,1.265c-0.021,0.106-0.068,0.198-0.135,0.279c-0.07,0.08-0.18,0.12-0.328,0.12h-1.551  c-0.203,0-0.305-0.102-0.305-0.305c0-0.033,0-0.062,0-0.094c0.02-0.042,0.031-0.07,0.031-0.082l2.463-10.271  c0.043-0.194,0.104-0.315,0.184-0.369C109.027,10.719,109.143,10.692,109.293,10.692z M109.645,17.844h1.326  c0.119,0,0.156-0.08,0.113-0.24l-0.703-2.832c-0.012-0.042-0.031-0.077-0.057-0.105c-0.027-0.027-0.045-0.044-0.057-0.056  c-0.063,0.064-0.102,0.119-0.111,0.161l-0.623,2.832C109.49,17.765,109.525,17.844,109.645,17.844z M120.01,21.35V11.141  c0-0.181,0.037-0.302,0.113-0.359c0.072-0.06,0.197-0.089,0.367-0.089h3.088c1.225,0,2.148,0.282,2.768,0.848  c0.545,0.504,0.816,1.162,0.816,1.986c0,0.511-0.129,0.964-0.383,1.358c-0.256,0.394-0.637,0.695-1.137,0.898v0.062  c0.607,0.204,1.084,0.556,1.432,1.057c0.346,0.503,0.52,1.093,0.52,1.777c0,0.938-0.266,1.686-0.801,2.239  c-0.629,0.652-1.59,0.977-2.879,0.977h-3.424C120.17,21.892,120.01,21.711,120.01,21.35z M123.193,14.917  c0.502,0,0.877-0.104,1.123-0.311c0.242-0.206,0.365-0.463,0.365-0.77c0-0.296-0.096-0.533-0.287-0.715  c-0.256-0.232-0.662-0.35-1.217-0.35h-0.512c-0.191,0-0.287,0.075-0.287,0.223v1.73c0,0.127,0.1,0.192,0.305,0.192H123.193z   M122.588,19.813h0.734c0.564,0,0.994-0.132,1.281-0.394c0.287-0.263,0.43-0.592,0.43-0.99c0-0.396-0.127-0.724-0.383-0.981  c-0.309-0.299-0.754-0.451-1.328-0.451h-0.689c-0.115,0-0.188,0.027-0.215,0.082c-0.027,0.052-0.039,0.116-0.039,0.191v2.35  C122.379,19.748,122.449,19.813,122.588,19.813z M82.094,35.997v-10.08c0-0.19,0.021-0.319,0.064-0.383  c0.086-0.117,0.25-0.176,0.496-0.176h1.248c0.246,0,0.398,0.044,0.463,0.136c0.064,0.089,0.096,0.231,0.096,0.422v3.443  c0,0.148,0.074,0.223,0.225,0.223h0.768c0.246,0,0.438-0.074,0.576-0.223c0.182-0.19,0.273-0.505,0.273-0.939v-1.181  c0-0.604,0.156-1.07,0.473-1.395c0.313-0.322,0.723-0.486,1.221-0.486h1.074c0.139,0,0.256,0.04,0.352,0.122  c0.096,0.079,0.143,0.192,0.143,0.341v1.01c0,0.161-0.039,0.267-0.117,0.32c-0.08,0.054-0.16,0.079-0.234,0.079h-0.32  c-0.139,0-0.232,0.063-0.279,0.187c-0.049,0.121-0.072,0.257-0.072,0.406v1.311c0,0.353-0.074,0.63-0.223,0.833  c-0.203,0.17-0.402,0.335-0.594,0.496v0.064c0.406,0.19,0.732,0.436,0.977,0.736c0.246,0.297,0.369,0.741,0.369,1.326v3.408  c0,0.194-0.021,0.319-0.064,0.384c-0.086,0.117-0.252,0.177-0.496,0.177h-1.248c-0.244,0-0.398-0.046-0.465-0.137  c-0.063-0.093-0.094-0.232-0.094-0.426v-2.647c0-0.514-0.102-0.907-0.305-1.18c-0.203-0.273-0.525-0.41-0.961-0.41h-0.781  c-0.131,0-0.195,0.085-0.195,0.256v3.981c0,0.248-0.043,0.401-0.137,0.465c-0.09,0.064-0.229,0.098-0.422,0.098h-1.248  c-0.193,0-0.318-0.022-0.385-0.064C82.154,36.409,82.094,36.243,82.094,35.997z M92.941,25.358h2.016  c0.139,0,0.248,0.027,0.328,0.079c0.08,0.054,0.146,0.176,0.201,0.37l2.59,10.27c0.023,0.064,0.033,0.136,0.033,0.209  c0,0.181-0.119,0.272-0.354,0.272h-1.568c-0.158,0-0.271-0.041-0.342-0.129c-0.07-0.084-0.119-0.19-0.154-0.32l-0.316-1.214  c-0.043-0.161-0.152-0.241-0.322-0.241h-2.193c-0.18,0-0.287,0.08-0.318,0.241l-0.303,1.263c-0.021,0.108-0.068,0.198-0.137,0.281  c-0.07,0.08-0.18,0.119-0.328,0.119h-1.551c-0.205,0-0.305-0.102-0.305-0.307c0-0.031,0-0.06,0-0.094  c0.021-0.041,0.033-0.067,0.033-0.081l2.463-10.27c0.041-0.193,0.104-0.315,0.182-0.37C92.678,25.385,92.793,25.358,92.941,25.358z   M93.293,32.51h1.328c0.119,0,0.154-0.08,0.111-0.241l-0.703-2.831c-0.01-0.042-0.029-0.077-0.055-0.104  c-0.027-0.027-0.047-0.045-0.057-0.057c-0.064,0.063-0.104,0.118-0.111,0.16l-0.625,2.831C93.139,32.43,93.176,32.51,93.293,32.51z   M105.309,36.558h-1.25c-0.244,0-0.398-0.046-0.463-0.137c-0.064-0.093-0.096-0.232-0.096-0.426v-3.948  c0-0.192-0.098-0.289-0.289-0.289h-0.529c-0.287,0-0.531,0.08-0.734,0.24c-0.318,0.246-0.48,0.647-0.48,1.205v2.792  c0,0.193-0.02,0.321-0.063,0.386c-0.084,0.117-0.252,0.177-0.496,0.177h-1.25c-0.242,0-0.398-0.046-0.463-0.137  c-0.063-0.089-0.094-0.229-0.094-0.424v-3.408c0-0.489,0.105-0.904,0.318-1.247c0.129-0.204,0.299-0.384,0.512-0.544  c0.16-0.096,0.279-0.166,0.352-0.207c0.076-0.043,0.113-0.074,0.113-0.098c0-0.031-0.025-0.064-0.072-0.096  c-0.047-0.033-0.104-0.058-0.168-0.079c-0.203-0.107-0.352-0.271-0.447-0.489c-0.098-0.217-0.146-0.45-0.146-0.696v-1.311  c0-0.278-0.031-0.444-0.092-0.503c-0.066-0.06-0.174-0.089-0.322-0.089h-0.146c-0.199,0-0.328-0.049-0.381-0.151  c-0.055-0.102-0.08-0.237-0.08-0.409v-0.848c0-0.139,0.031-0.238,0.096-0.302c0.105-0.106,0.293-0.161,0.559-0.161h0.977  c0.406,0,0.732,0.084,0.975,0.255c0.428,0.297,0.641,0.839,0.641,1.625v1.037c0,0.414,0.043,0.711,0.129,0.893  c0.127,0.275,0.369,0.413,0.719,0.413h0.576c0.191,0,0.289-0.094,0.289-0.287v-3.378c0-0.191,0.021-0.317,0.064-0.381  c0.086-0.117,0.25-0.176,0.494-0.176h1.25c0.244,0,0.398,0.044,0.463,0.136c0.064,0.089,0.096,0.231,0.096,0.422v3.378  c0,0.193,0.094,0.287,0.289,0.287h0.574c0.344,0,0.578-0.131,0.705-0.398c0.096-0.201,0.143-0.503,0.143-0.907v-1.037  c0-0.786,0.209-1.329,0.625-1.625c0.236-0.171,0.566-0.255,0.992-0.255h0.977c0.266,0,0.441,0.042,0.525,0.129  c0.088,0.083,0.131,0.194,0.131,0.333v0.848c0,0.151-0.021,0.268-0.064,0.352c-0.074,0.139-0.209,0.208-0.4,0.208h-0.145  c-0.139,0-0.229,0.022-0.27,0.064c-0.098,0.087-0.146,0.263-0.146,0.528v1.311c0,0.268-0.045,0.506-0.137,0.715  c-0.088,0.205-0.24,0.363-0.455,0.471c-0.16,0.064-0.24,0.121-0.24,0.175c0,0.023,0.068,0.07,0.201,0.145s0.221,0.129,0.264,0.16  c0.127,0.096,0.244,0.207,0.352,0.336c0.32,0.394,0.48,0.88,0.48,1.455v3.408c0,0.246-0.045,0.399-0.137,0.463  c-0.09,0.064-0.23,0.098-0.424,0.098h-1.248c-0.191,0-0.32-0.022-0.383-0.064c-0.119-0.084-0.178-0.25-0.178-0.498v-2.792  c0-0.567-0.152-0.969-0.463-1.205c-0.205-0.16-0.453-0.24-0.752-0.24h-0.527c-0.195,0-0.289,0.097-0.289,0.289v3.948  c0,0.248-0.047,0.401-0.137,0.465C105.641,36.524,105.5,36.558,105.309,36.558z M113.852,25.358h4.752  c0.244,0,0.4,0.047,0.465,0.136c0.063,0.092,0.096,0.233,0.096,0.424v8.337c0,0.107,0.006,0.169,0.023,0.19  c0.016,0.022,0.07,0.031,0.168,0.031h0.354c0.191,0,0.32,0.023,0.383,0.065c0.115,0.084,0.178,0.247,0.178,0.493v3.013  c0,0.244-0.047,0.398-0.139,0.463c-0.09,0.061-0.23,0.096-0.422,0.096h-1.168c-0.248,0-0.4-0.045-0.467-0.137  c-0.063-0.09-0.094-0.229-0.094-0.42v-1.256c0-0.157-0.086-0.236-0.258-0.236h-3.887c-0.191,0-0.289,0.102-0.289,0.302v1.19  c0,0.242-0.045,0.396-0.137,0.461c-0.09,0.061-0.23,0.096-0.424,0.096h-1.168c-0.244,0-0.4-0.045-0.461-0.139  c-0.068-0.088-0.1-0.229-0.1-0.42v-3.013c0-0.246,0.047-0.399,0.137-0.46c0.092-0.065,0.232-0.099,0.424-0.099h0.145  c0.16,0,0.299-0.171,0.416-0.511c0.053-0.149,0.119-0.42,0.191-0.816c0.248-1.151,0.428-2.32,0.545-3.504  c0.084-0.884,0.129-1.737,0.129-2.56l0.047-1.265c0-0.223,0.043-0.357,0.127-0.398C113.506,25.38,113.648,25.358,113.852,25.358z   M116.795,34.255v-6.624c0-0.128-0.063-0.193-0.191-0.193h-0.801c-0.139,0-0.209,0.065-0.209,0.193l-0.078,0.991  c0,1.641-0.096,2.779-0.287,3.409c-0.225,0.733-0.4,1.47-0.529,2.206v0.129c0.021,0.074,0.096,0.11,0.225,0.11h1.648  C116.721,34.477,116.795,34.402,116.795,34.255z M121.227,35.997v-10.08c0-0.19,0.021-0.319,0.063-0.383  c0.086-0.117,0.252-0.176,0.496-0.176h1.25c0.244,0,0.4,0.047,0.461,0.136c0.066,0.092,0.098,0.233,0.098,0.424v3.248  c0,0.129,0.064,0.193,0.193,0.193h1.184c1.184,0,2.102,0.334,2.752,1.006c0.652,0.672,0.975,1.58,0.975,2.72  c0,1.366-0.465,2.332-1.391,2.898c-0.643,0.385-1.49,0.575-2.545,0.575h-2.977c-0.244,0-0.4-0.046-0.463-0.137  C121.258,36.332,121.227,36.191,121.227,35.997z M123.594,31.665v2.476c0,0.15,0.07,0.226,0.209,0.226h1.041  c0.373,0,0.678-0.151,0.918-0.451c0.24-0.299,0.359-0.65,0.359-1.047s-0.131-0.733-0.398-1.014  c-0.268-0.277-0.627-0.416-1.072-0.416h-0.832C123.67,31.438,123.594,31.513,123.594,31.665z M129.34,35.997v-10.08  c0-0.19,0.02-0.319,0.061-0.383c0.086-0.117,0.252-0.176,0.498-0.176h1.248c0.191,0,0.318,0.022,0.383,0.065  c0.117,0.083,0.178,0.249,0.178,0.495v10.08c0,0.246-0.047,0.399-0.137,0.463c-0.092,0.064-0.232,0.098-0.424,0.098h-1.248  c-0.193,0-0.32-0.022-0.385-0.064C129.396,36.409,129.34,36.243,129.34,35.997z M134.9,36.558h-1.203  c-0.188,0-0.314-0.022-0.379-0.064c-0.113-0.084-0.172-0.25-0.172-0.496v-10.08c0-0.19,0.021-0.319,0.064-0.383  c0.084-0.117,0.252-0.176,0.496-0.176h1.246c0.244,0,0.4,0.047,0.465,0.136c0.064,0.092,0.096,0.233,0.096,0.424v5.234l2.129-5.234  c0.096-0.236,0.186-0.386,0.266-0.456c0.078-0.069,0.201-0.104,0.359-0.104h1.307c0.248,0,0.404,0.047,0.467,0.136  c0.064,0.092,0.096,0.233,0.096,0.424v10.08c0,0.194-0.021,0.319-0.064,0.384c-0.084,0.117-0.25,0.177-0.496,0.177h-1.246  c-0.246,0-0.4-0.046-0.463-0.137c-0.064-0.089-0.098-0.229-0.098-0.424v-5.488l-2.143,5.488c-0.086,0.235-0.184,0.387-0.295,0.457  C135.223,36.522,135.078,36.558,134.9,36.558z M137.994,24.621h-2.721c-0.32,0-0.574-0.109-0.76-0.327  c-0.188-0.218-0.281-0.457-0.281-0.711v-0.226c0-0.053,0.014-0.104,0.033-0.151c0.02-0.047,0.074-0.073,0.162-0.073h0.973  c0.15,0,0.227,0.075,0.227,0.224c0,0.204,0.18,0.304,0.543,0.304h0.928c0.363,0,0.545-0.101,0.545-0.304  c0-0.149,0.074-0.224,0.225-0.224h0.975c0.074,0,0.121,0.025,0.145,0.073c0.02,0.047,0.037,0.099,0.047,0.151v0.226  c0,0.255-0.09,0.493-0.271,0.711C138.58,24.512,138.324,24.621,137.994,24.621z M84.156,40.023h4.754  c0.244,0,0.398,0.047,0.463,0.136c0.063,0.092,0.098,0.233,0.098,0.424v8.336c0,0.107,0.006,0.17,0.023,0.192  c0.014,0.022,0.07,0.031,0.168,0.031h0.352c0.191,0,0.32,0.022,0.383,0.065c0.119,0.083,0.178,0.247,0.178,0.492v3.013  c0,0.245-0.047,0.398-0.137,0.463c-0.092,0.062-0.232,0.095-0.424,0.095h-1.168c-0.244,0-0.4-0.044-0.463-0.134  c-0.064-0.092-0.098-0.23-0.098-0.422V51.46c0-0.157-0.084-0.237-0.258-0.237h-3.885c-0.193,0-0.289,0.102-0.289,0.303v1.189  c0,0.243-0.045,0.396-0.137,0.461c-0.092,0.062-0.23,0.095-0.424,0.095h-1.168c-0.244,0-0.398-0.044-0.463-0.137  c-0.064-0.089-0.096-0.231-0.096-0.421V49.7c0-0.245,0.045-0.398,0.137-0.46c0.088-0.064,0.232-0.098,0.422-0.098h0.145  c0.158,0,0.301-0.171,0.416-0.512c0.055-0.149,0.119-0.42,0.193-0.816c0.244-1.15,0.426-2.32,0.543-3.502  c0.086-0.886,0.127-1.739,0.127-2.562l0.049-1.264c0-0.224,0.043-0.357,0.129-0.4C83.813,40.046,83.953,40.023,84.156,40.023z   M87.104,48.919v-6.623c0-0.129-0.066-0.193-0.193-0.193h-0.801c-0.139,0-0.207,0.064-0.207,0.193l-0.08,0.991  c0,1.643-0.098,2.78-0.287,3.409c-0.225,0.734-0.4,1.471-0.527,2.207v0.128c0.021,0.075,0.096,0.111,0.221,0.111h1.65  C87.025,49.143,87.104,49.068,87.104,48.919z M91.295,47.143v-3.04c0-1.065,0.137-1.897,0.412-2.496  c0.535-1.14,1.561-1.709,3.072-1.709c1.42,0,2.406,0.509,2.959,1.533c0.355,0.652,0.529,1.542,0.529,2.672v3.04  c0,1.056-0.139,1.884-0.416,2.48c-0.531,1.15-1.557,1.729-3.072,1.729c-1.182,0-2.059-0.345-2.631-1.034  C91.578,49.631,91.295,48.573,91.295,47.143z M95.9,46.872v-2.496c0-0.834-0.049-1.398-0.145-1.696  c-0.15-0.471-0.475-0.703-0.977-0.703s-0.826,0.229-0.975,0.687c-0.096,0.301-0.145,0.87-0.145,1.713v2.496  c0,0.83,0.049,1.396,0.145,1.695c0.148,0.47,0.473,0.704,0.975,0.704s0.826-0.23,0.977-0.688C95.852,48.285,95.9,47.713,95.9,46.872  z M101.836,44.791v5.872c0,0.245-0.045,0.399-0.135,0.462c-0.09,0.065-0.23,0.098-0.424,0.098h-1.25  c-0.191,0-0.318-0.022-0.383-0.064c-0.117-0.084-0.174-0.25-0.174-0.495v-10.08c0-0.19,0.018-0.319,0.063-0.384  c0.086-0.117,0.25-0.176,0.494-0.176h1.426c0.16,0,0.299,0.054,0.416,0.161c0.064,0.051,0.117,0.126,0.158,0.222l1.73,3.456  c0.02,0.055,0.047,0.111,0.088,0.177c0.035,0.063,0.07,0.096,0.102,0.096c0.043,0,0.084-0.039,0.121-0.121  c0.037-0.079,0.057-0.124,0.057-0.133l1.729-3.428c0.082-0.158,0.174-0.269,0.27-0.334c0.1-0.064,0.209-0.096,0.338-0.096h1.344  c0.246,0,0.398,0.047,0.465,0.136c0.063,0.092,0.096,0.233,0.096,0.424v10.08c0,0.245-0.047,0.399-0.139,0.462  c-0.09,0.065-0.23,0.098-0.422,0.098h-1.248c-0.246,0-0.398-0.044-0.465-0.136c-0.064-0.09-0.096-0.232-0.096-0.424v-5.697  c-0.021-0.062-0.043-0.094-0.064-0.094l-0.049,0.032l-1.246,3.006c-0.064,0.172-0.129,0.284-0.191,0.338  c-0.064,0.053-0.146,0.079-0.242,0.079h-0.543c-0.18,0-0.326-0.138-0.432-0.417l-1.281-3.136  C101.908,44.784,101.869,44.791,101.836,44.791z"/>
</svg>
